<?xml version="1.0" standalone="no"?>
<!DOCTYPE svg PUBLIC "-//W3C//DTD SVG 20010904//EN"
 "http://www.w3.org/TR/2001/REC-SVG-20010904/DTD/svg10.dtd">
<svg version="1.0" xmlns="http://www.w3.org/2000/svg"
 width="512.000000pt" height="512.000000pt" viewBox="0 0 512.000000 512.000000"
 preserveAspectRatio="xMidYMid meet">
<metadata>
Created by potrace 1.14, written by Peter Selinger 2001-2017
</metadata>
<g transform="translate(0.000000,512.000000) scale(0.100000,-0.100000)"
fill="#000000" stroke="none">
<path d="M0 2560 l0 -2560 2560 0 2560 0 0 2560 0 2560 -2560 0 -2560 0 0
-2560z m2520 140 l0 -1110 -255 0 -255 0 0 116 0 117 -61 -67 c-78 -84 -170
-140 -279 -167 -71 -18 -103 -21 -210 -16 -198 8 -323 60 -455 192 -152 151
-225 319 -245 563 -37 470 178 837 551 938 79 21 261 24 339 5 102 -24 219
-89 293 -163 l67 -67 0 384 0 385 255 0 255 0 0 -1110z m1025 560 c44 -11 108
-34 143 -51 77 -38 182 -133 234 -213 40 -62 88 -196 88 -247 l0 -29 -233 0
-234 0 -12 40 c-14 46 -69 106 -117 126 -57 24 -135 28 -195 10 -69 -19 -100
-51 -106 -109 -10 -87 57 -128 317 -192 139 -34 304 -90 360 -123 75 -43 157
-129 193 -201 31 -63 32 -70 32 -191 0 -125 0 -126 -38 -202 -65 -133 -204
-236 -387 -285 -94 -26 -396 -26 -495 0 -182 48 -359 167 -435 293 -41 68 -79
175 -80 222 l0 32 249 0 249 0 13 -37 c27 -85 92 -136 197 -154 90 -16 166 2
214 51 31 31 38 45 38 77 0 84 -58 116 -345 192 -288 76 -344 100 -438 190
-66 62 -99 119 -116 199 -66 312 152 571 524 621 102 14 286 5 380 -19z"/>
<path d="M1521 2821 c-95 -36 -158 -95 -204 -191 -29 -59 -32 -76 -35 -177 -3
-93 -1 -124 17 -180 25 -82 79 -156 145 -200 63 -43 115 -57 206 -57 232 2
391 221 352 485 -15 101 -52 176 -119 240 -72 68 -128 92 -228 96 -62 3 -92
-1 -134 -16z"/>
</g>
</svg>
